<svg width="50" height="50" viewBox="0 0 50 50" fill="none" xmlns="http://www.w3.org/2000/svg">
<path d="M47.3411 29.1412L47.3265 29.1484C45.6126 30.4628 44.8865 32.6994 45.4965 34.7691L45.5038 34.7837C46.4768 38.0733 44.066 41.3919 40.6382 41.4791H40.6238C38.4597 41.5372 36.5571 42.9169 35.8381 44.9575V44.9647C34.6907 48.2035 30.7839 49.4743 27.959 47.5208C26.2049 46.323 23.8861 46.2605 22.0406 47.5208H22.0333C19.2085 49.467 15.3016 48.2034 14.1615 44.9574C13.8096 43.9614 13.1637 43.0956 12.3092 42.4746C11.4547 41.8535 10.4319 41.5063 9.37593 41.479H9.36138C5.93384 41.3918 3.5228 38.0732 4.49595 34.7836L4.50317 34.769C5.11304 32.6993 4.38687 30.4627 2.67319 29.1483L2.65864 29.1411C-0.0645995 27.0496 -0.0645995 22.954 2.65864 20.8626L2.67319 20.8553C4.38687 19.541 5.11304 17.3043 4.49595 15.2346V15.2201C3.51548 11.9305 5.93374 8.61179 9.36138 8.52468H9.37593C11.5327 8.46658 13.4425 7.08679 14.1615 5.04626V5.03904C15.3015 1.80027 19.2085 0.529466 22.0333 2.48298H22.0406C23.8197 3.71023 26.1725 3.71023 27.959 2.48298C30.8124 0.512572 34.6974 1.8197 35.8381 5.03904V5.04626C36.5571 7.07956 38.4596 8.46667 40.6238 8.52468H40.6382C44.0659 8.61179 46.4768 11.9305 45.5038 15.2201L45.4965 15.2346C44.8865 17.3043 45.6126 19.541 47.3265 20.8553L47.3411 20.8626C50.0643 22.954 50.0643 27.0497 47.3411 29.1412Z" fill="#3EB655"/>
<path d="M25 38.5272C32.4707 38.5272 38.527 32.471 38.527 25.0002C38.527 17.5294 32.4707 11.4731 25 11.4731C17.5292 11.4731 11.4729 17.5294 11.4729 25.0002C11.4729 32.471 17.5292 38.5272 25 38.5272Z" fill="#8BD399"/>
<path d="M35.3863 16.3415C33.0465 14.4167 30.0531 13.2598 26.7898 13.2598C19.3191 13.2598 13.2595 19.3193 13.2595 26.79C13.2595 30.0533 14.4165 33.0468 16.3412 35.3865C13.3684 32.9067 11.4749 29.1766 11.4749 25.0002C11.4749 17.5294 17.5292 11.4751 25 11.4751C29.1763 11.4751 32.9065 13.3687 35.3863 16.3415Z" fill="black" fill-opacity="0.063"/>
<path d="M21.7817 30.2956L18.7904 27.1132C18.007 26.2796 18.0474 24.969 18.8807 24.1856C19.714 23.4012 21.0252 23.4433 21.8079 24.2763L23.2359 25.7949L29.3055 18.8576C30.0578 17.9966 31.3664 17.9093 32.2281 18.6627C33.089 19.4162 33.1759 20.7244 32.4229 21.5853L24.8491 30.2411C24.0423 31.1622 22.6184 31.1864 21.7817 30.2956Z" fill="white"/>
</svg>
