<svg width="50" height="50" viewBox="0 0 50 50" fill="none" xmlns="http://www.w3.org/2000/svg">
<path d="M50 4.39453V28.0273C50 30.4591 48.0372 32.4219 45.6055 32.4219H4.39453C1.96279 32.4219 0 30.4591 0 28.0273V4.39453C0 3.19346 0.497949 2.10928 1.25977 1.31836H1.28906L24.0625 14.3262C24.3556 14.5312 24.6778 14.6484 25 14.6484C25.3222 14.6484 25.6444 14.5313 25.9375 14.3262L48.7109 1.31836H48.7402C49.5021 2.10928 50 3.19346 50 4.39453Z" fill="#FDBF00"/>
<path d="M50 4.39453V28.0273C50 30.4591 48.0372 32.4219 45.6055 32.4219H25V14.6484C25.3223 14.6484 25.6444 14.5313 25.9375 14.3262L48.7109 1.31836H48.7402C49.5021 2.10928 50 3.19346 50 4.39453Z" fill="#FF9F00"/>
<path d="M48.7109 1.28906V1.31836L25.9375 20.1855C25.6444 20.3906 25.3222 20.5078 25 20.5078C24.6778 20.5078 24.3556 20.3907 24.0625 20.1855L1.28906 1.31836V1.28906C2.08018 0.497949 3.19346 0 4.39453 0H45.6055C46.8065 0 47.9198 0.497949 48.7109 1.28906Z" fill="#FFDE46"/>
<path d="M48.7109 1.28906V1.31836L25.9375 20.1855C25.6444 20.3906 25.3222 20.5078 25 20.5078V0H45.6055C46.8065 0 47.9198 0.497949 48.7109 1.28906Z" fill="#FFD400"/>
<path d="M36.7188 23.6328C29.4532 23.6328 23.5352 29.5509 23.5352 36.8164C23.5352 44.0819 29.4532 50 36.7188 50C43.9843 50 50 44.0819 50 36.8164C50 29.5509 43.9843 23.6328 36.7188 23.6328Z" fill="#00ABE9"/>
<path d="M50 36.8164C50 44.0819 43.9843 50 36.7188 50V23.6328C43.9843 23.6328 50 29.5509 50 36.8164Z" fill="#359DF0"/>
<path d="M43.701 34.912L36.7187 41.7969L36.2791 42.2362C36.0155 42.5293 35.6347 42.6758 35.2538 42.6758C34.8729 42.6758 34.4921 42.5293 34.2285 42.2362L29.834 37.8417C29.248 37.2851 29.248 36.3478 29.834 35.791C30.3906 35.2051 31.3279 35.2051 31.8847 35.791L35.2538 39.1308L36.7187 37.6659L41.5527 32.8613C42.1094 32.2754 43.1443 32.2754 43.7011 32.8613C44.287 33.4181 44.287 34.3554 43.701 34.912Z" fill="#F7F0EB"/>
<path d="M43.7011 34.912L36.7188 41.7969V37.6659L41.5528 32.8613C42.1095 32.2754 43.1444 32.2754 43.7012 32.8613C44.2871 33.4181 44.2871 34.3554 43.7011 34.912Z" fill="#EFE2DD"/>
</svg>
