<svg width="80" height="80" viewBox="0 0 80 80" fill="none" xmlns="http://www.w3.org/2000/svg">
<path d="M40.0001 6.66675C58.4101 6.66675 73.3334 21.5901 73.3334 40.0001C73.3334 58.4101 58.4101 73.3334 40.0001 73.3334C21.5901 73.3334 6.66675 58.4101 6.66675 40.0001C6.66675 21.5901 21.5901 6.66675 40.0001 6.66675ZM40.0001 36.6667C37.3479 36.6667 34.8044 37.7203 32.929 39.5957C31.0536 41.471 30.0001 44.0146 30.0001 46.6667V50.0001C30.0001 52.6522 31.0536 55.1958 32.929 57.0712C34.8044 58.9465 37.3479 60.0001 40.0001 60.0001C42.6522 60.0001 45.1958 58.9465 47.0712 57.0712C48.9465 55.1958 50.0001 52.6522 50.0001 50.0001V46.6667C50.0001 44.0146 48.9465 41.471 47.0712 39.5957C45.1958 37.7203 42.6522 36.6667 40.0001 36.6667ZM40.0001 43.3334C40.8841 43.3334 41.732 43.6846 42.3571 44.3097C42.9822 44.9348 43.3334 45.7827 43.3334 46.6667V50.0001C43.3334 50.8841 42.9822 51.732 42.3571 52.3571C41.732 52.9822 40.8841 53.3334 40.0001 53.3334C39.116 53.3334 38.2682 52.9822 37.6431 52.3571C37.0179 51.732 36.6667 50.8841 36.6667 50.0001V46.6667C36.6667 45.7827 37.0179 44.9348 37.6431 44.3097C38.2682 43.6846 39.116 43.3334 40.0001 43.3334ZM28.0734 24.2534C26.5401 24.6367 25.0901 25.5301 23.9234 26.6967C22.7567 27.8634 21.8634 29.3134 21.4801 30.8467C21.1134 32.3034 21.1034 34.4834 22.7467 36.1234C24.3867 37.7667 26.5667 37.7534 28.0234 37.3901C29.5567 37.0068 31.0034 36.1134 32.1734 34.9468C33.3401 33.7801 34.2334 32.3301 34.6134 30.7968C34.9801 29.3401 34.9934 27.1601 33.3501 25.5168C31.7101 23.8767 29.5301 23.8901 28.0734 24.2534ZM46.6501 25.5201C45.0067 27.1601 45.0201 29.3401 45.3834 30.7968C45.7668 32.3301 46.6601 33.7801 47.8267 34.9468C48.9934 36.1134 50.4434 37.0068 51.9768 37.3901C53.4334 37.7534 55.6134 37.7667 57.2568 36.1234C58.8968 34.4834 58.8834 32.3034 58.5201 30.8467C58.1367 29.3134 57.2434 27.8634 56.0768 26.6967C54.9101 25.5301 53.4601 24.6367 51.9268 24.2534C50.4701 23.8901 48.2934 23.8767 46.6501 25.5201Z" fill="#F31F0C"/>
</svg>
